<?xml version="1.0" encoding="UTF-8" standalone="no"?>
<!DOCTYPE svg PUBLIC "-//W3C//DTD SVG 1.1//EN" "http://www.w3.org/Graphics/SVG/1.1/DTD/svg11.dtd">
<svg width="100%" height="100%" viewBox="0 0 50 64" version="1.1" xmlns="http://www.w3.org/2000/svg" xmlns:xlink="http://www.w3.org/1999/xlink" xml:space="preserve" xmlns:serif="http://www.serif.com/" style="fill-rule:evenodd;clip-rule:evenodd;stroke-linejoin:round;stroke-miterlimit:2;">
    <g transform="matrix(0.0410896,0,0,0.0410896,-38.1727,-63.1107)">
        <path d="M960.021,2544.47C956.8,2539.64 954.671,2533.99 954.027,2527.82C951.801,2506.51 950.143,2498.73 952.93,2489.32C954.707,2483.32 957.868,2476.41 964.979,2467.37C972.615,2457.65 988.375,2441.54 1019.48,2407.44C1033.24,2392.35 1056.67,2391.27 1071.76,2405.03C1086.85,2418.8 1087.93,2442.22 1074.16,2457.32C1050.16,2483.63 1033.49,2501.98 1026.24,2509.97C1026.27,2510.14 1026.3,2510.32 1026.33,2510.5C1034.51,2509.82 1049.61,2508.13 1062.04,2504.32C1148.38,2477.81 1293.58,2389.96 1445.06,2269.38C1557.96,2179.49 1652.29,2088.71 1712.2,2015.53C1747.53,1972.39 1771.07,1937.22 1775.33,1912.91C1775.41,1912.42 1775.49,1911.77 1775.54,1911.18C1775.36,1910.9 1775.19,1910.61 1775.03,1910.32C1771.92,1904.93 1770.32,1898.98 1770.14,1893.02C1769.95,1887.04 1771.2,1880.98 1773.99,1875.39C1775.58,1872.2 1777.64,1869.2 1780.18,1866.52C1782.71,1863.83 1785.58,1861.58 1788.67,1859.81C1794.07,1856.69 1800.04,1855.08 1806.01,1854.9C1811.99,1854.72 1818.04,1855.97 1823.62,1858.76C1825.56,1859.72 1827.41,1860.85 1829.18,1862.16C1840.33,1870.11 1851.19,1878.45 1861.74,1887.16C1884.61,1865.25 1913.94,1849.59 1947.41,1843.54C2038.09,1827.15 2125.02,1887.46 2141.41,1978.14C2152.38,2038.81 2129.02,2097.8 2085.19,2135.1C2083.81,2136.28 2082.36,2137.34 2080.87,2138.28L2048.75,2170.98C2063.58,2222.05 2071.54,2276.04 2071.54,2331.88C2071.54,2650.05 1813.22,2908.36 1495.05,2908.36C1255.24,2908.36 1049.42,2761.61 962.607,2553.08C961.81,2551.27 961.168,2549.4 960.678,2547.51C960.415,2546.5 960.196,2545.49 960.021,2544.47ZM1835.79,1962.74C1827.31,1981.11 1814.87,2002.06 1798.48,2024.83C1739.85,2106.28 1628.92,2217.62 1491.16,2327.28C1330.41,2455.25 1175.39,2546.95 1083.76,2575.08C1075.03,2577.76 1066.75,2579.88 1058.96,2581.49C1145.67,2732.52 1308.56,2834.34 1495.05,2834.34C1772.37,2834.34 1997.52,2609.19 1997.52,2331.88C1997.52,2186 1935.21,2054.57 1835.79,1962.74ZM2029.49,2087.84C2031.5,2084.49 2034.08,2081.4 2037.22,2078.73C2061.64,2057.95 2074.68,2025.1 2068.57,1991.31C2059.45,1940.83 2011.06,1907.26 1960.58,1916.38C1943.35,1919.5 1928.09,1927.18 1915.83,1937.97C1959.16,1984.23 1994.96,2037.64 2021.26,2096.22L2029.49,2087.84Z" style="fill:rgb(237,203,150);"/>
    </g>
    <g transform="matrix(0.0521064,0,0,0.0521064,-57.388,-80.0547)">
        <path d="M1214.02,2760.34C1200.77,2760.34 1190.02,2749.58 1190.02,2736.34C1190.02,2723.09 1200.77,2712.34 1214.02,2712.34L1881.01,2712.34C1894.26,2712.34 1905.01,2723.09 1905.01,2736.34C1905.01,2749.58 1894.26,2760.34 1881.01,2760.34L1214.02,2760.34Z" style="fill:rgb(237,203,150);"/>
    </g>
    <g transform="matrix(0.0410896,0,0,0.0410896,-38.1727,-63.1107)">
        <path d="M1846.07,2043.14C1855.35,2056.15 1865.3,2068.65 1875.87,2080.6C1923.55,2152.68 1951.33,2239.06 1951.33,2331.88C1951.33,2583.7 1746.88,2788.15 1495.05,2788.15C1359.51,2788.15 1237.69,2728.92 1154.09,2634.95C1151.93,2632.49 1151.74,2628.87 1153.64,2626.19C1155.54,2623.52 1159.03,2622.51 1162.06,2623.74C1174.56,2628.87 1188.25,2631.7 1202.59,2631.7C1261.56,2631.7 1309.44,2583.82 1309.44,2524.85C1309.44,2522.41 1309.36,2519.99 1309.2,2517.6C1376.23,2476.31 1450.52,2424.18 1526.07,2364.04C1663.83,2254.37 1774.76,2143.03 1833.38,2061.58C1837.91,2055.29 1842.14,2049.14 1846.07,2043.14ZM1228.8,2422.33C1226.54,2421.49 1224.29,2420.64 1222.05,2419.77C1151.33,2392.29 1089.14,2347.69 1040.58,2291.06C972.146,2211.25 930.78,2107.56 930.78,1994.29C930.78,1742.47 1135.23,1538.02 1387.05,1538.02C1543.18,1538.02 1625.76,1594.89 1670.65,1672.74C1708.85,1738.97 1710.34,1814.13 1771.16,1927.18C1762.15,1950.23 1741.13,1980.21 1712.2,2015.53C1652.29,2088.71 1557.96,2179.49 1445.06,2269.38C1369.19,2329.77 1294.9,2381.95 1228.8,2422.33ZM1171.78,2019.67C1136.92,2019.67 1108.62,2047.97 1108.62,2082.83C1108.62,2117.69 1136.92,2145.99 1171.78,2145.99C1206.64,2145.99 1234.94,2117.69 1234.94,2082.83C1234.94,2047.97 1206.64,2019.67 1171.78,2019.67ZM1555.23,1828.59C1520.37,1828.59 1492.07,1856.89 1492.07,1891.75C1492.07,1926.61 1520.37,1954.92 1555.23,1954.92C1590.09,1954.92 1618.39,1926.61 1618.39,1891.75C1618.39,1856.89 1590.09,1828.59 1555.23,1828.59Z" style="fill:rgb(234,234,234);"/>
    </g>
</svg>
